<svg xmlns="http://www.w3.org/2000/svg" viewBox="0 0 198.53 115.5"><defs><style>.cls-1{fill:#004aaf;}.cls-2{fill:#38b6ff;}.cls-3{fill:#5b8cce;}</style></defs><g id="Capa_2" data-name="Capa 2"><g id="Capa_1-2" data-name="Capa 1"><path class="cls-1" d="M134.13,52.28a4.6,4.6,0,0,1,.09.56c.31,3.2,2.07,4.52,5.27,3.94a3.27,3.27,0,0,0,2.85-2.92,2.94,2.94,0,0,0-2.41-3.35c-1.9-.51-3.86-.81-5.76-1.32-3.09-.82-4.83-2.73-5.06-5.6-.25-3.29.35-6.28,3.6-8s6.39-1.56,9.75-.71c3.75,1,5.47,5.25,4.86,9-1.46,0-3,.07-4.45,0-.29,0-.72-.79-.73-1.22,0-3.16-3-4.34-5.51-3.5a2.91,2.91,0,0,0-2.18,2.8c0,1.63.54,2.65,2,3,1.76.47,3.58.76,5.35,1.19a7.54,7.54,0,0,1,4.37,12.23c-1.54,2.07-3.86,2.77-6.26,3-3,.28-6,.08-8.47-2-2.17-1.84-2.55-4.32-2.43-7.08Z"/><path class="cls-1" d="M127,61c-1.8,0-3.36.06-4.91-.05-.36,0-.86-.58-1-1-.38-1.27-.56-2.59-1-3.86a1.39,1.39,0,0,0-1-.82,41,41,0,0,0-4.83,0,1.53,1.53,0,0,0-1,.91c-.39,1.26-.59,2.58-1,3.86-.1.36-.49.88-.77.9-1.6.09-3.2,0-5,0,.27-1.31.47-2.42.74-3.51C109.13,50.2,111,43,112.75,35.74c.19-.79.51-1.08,1.28-1.07,1.84,0,3.68,0,5.52,0,.7,0,1,.24,1.2,1q2.4,10,4.88,20C126.06,57.36,126.52,59.06,127,61ZM116.85,41.18h-.25l-2.15,9.48H119C118.28,47.42,117.56,44.3,116.85,41.18Z"/><path class="cls-1" d="M68.87,60.94c-1.78,0-3.34.06-4.89,0-.34,0-.82-.53-.93-.9-.36-1.23-.61-2.49-.85-3.75-.14-.74-.45-1.11-1.27-1.08-1.47,0-3,0-4.42,0-.73,0-1.15.15-1.31,1-.29,1.56-.77,3.09-1.2,4.76H48.45c.53-2.25,1-4.36,1.52-6.47.75-3,1.54-6,2.3-9,.84-3.33,1.64-6.66,2.54-10a1.32,1.32,0,0,1,1-.75c1.88-.08,3.77-.09,5.65,0a1.39,1.39,0,0,1,1,.77c.87,3.26,1.65,6.56,2.48,9.84,1.21,4.78,2.44,9.57,3.66,14.35C68.7,60,68.75,60.36,68.87,60.94Zm-8-10.25c-.71-3.23-1.39-6.3-2.07-9.37h-.36l-2.11,9.37Z"/><path class="cls-1" d="M193.09,52.25h5.06c.3,6.06-2.6,8.79-8,9.12a15.34,15.34,0,0,1-5.65-.81c-2.86-1-4.27-3.43-4.79-6.24a30.46,30.46,0,0,1,.45-14.45,7.9,7.9,0,0,1,6.65-5.4,14.37,14.37,0,0,1,6.91.65,5.8,5.8,0,0,1,3.78,3.72c.51,1.81.71,3.7,1.07,5.7h-5.41c-.17-1-.27-2-.52-2.93a3.24,3.24,0,0,0-3.15-2.77,3.87,3.87,0,0,0-4.07,2.2,13.77,13.77,0,0,0-.86,4.14,68.17,68.17,0,0,0,.29,7.69,4,4,0,0,0,3.95,4c2.52.06,3.73-1,4.12-3.44C192.94,53,193,52.68,193.09,52.25Z"/><path class="cls-1" d="M176.18,44.54h-4.91c-.31-1.26-.51-2.47-.91-3.62A3.12,3.12,0,0,0,167,38.84,3.65,3.65,0,0,0,163.43,41a3.78,3.78,0,0,0-.34.9,29.57,29.57,0,0,0,0,11.89c.52,2.44,2.11,3.3,4.63,3.06,1.83-.17,2.93-1.42,3.25-3.67,0-.27.08-.54.14-.89H176a7.25,7.25,0,0,1-4.59,8.5,12.12,12.12,0,0,1-9.77-.56,7,7,0,0,1-3.52-4.4,27.87,27.87,0,0,1,0-15.88,7.17,7.17,0,0,1,6.89-5.4,22.36,22.36,0,0,1,6.36.58c3.14.75,4.34,3.29,4.75,6.24A24.3,24.3,0,0,1,176.18,44.54Z"/><path class="cls-1" d="M70.25,39.29v-4.4H87.47v4.4c-1.49,0-3,.06-4.57,0-1.08-.05-1.41.31-1.41,1.4.05,6.1,0,12.21,0,18.32v1.86H76.33V59.31c0-6.15,0-12.3,0-18.45,0-1.31-.42-1.67-1.65-1.59C73.26,39.36,71.79,39.29,70.25,39.29Z"/><path class="cls-1" d="M90.47,34.85h5.1V56.32h9.71c0,1.43,0,2.73,0,4,0,.22-.56.57-.86.57-4.59,0-9.18,0-13.91,0Z"/><path class="cls-1" d="M27.57,48.54a5.8,5.8,0,0,1-5.89-5.81,5.87,5.87,0,1,1,5.89,5.81Z"/><path class="cls-1" d="M41,55.24a5.61,5.61,0,0,1-5.72,5.91,5.68,5.68,0,0,1-5.84-5.82A5.78,5.78,0,1,1,41,55.24Z"/><path class="cls-1" d="M45.33,69.1A5.34,5.34,0,1,1,40,63.74,5.37,5.37,0,0,1,45.33,69.1Z"/><path class="cls-1" d="M22.86,34.23a5.26,5.26,0,0,1-5.45-5.33,5.54,5.54,0,0,1,5.35-5.37,5.42,5.42,0,0,1,5.35,5.34A5.19,5.19,0,0,1,22.86,34.23Z"/><path class="cls-1" d="M32.64,83.34A4.48,4.48,0,0,1,36.89,79a4.54,4.54,0,0,1,4.23,4.43,4.19,4.19,0,0,1-4.27,4.25A4.12,4.12,0,0,1,32.64,83.34Z"/><path class="cls-1" d="M29.9,14.59a4.11,4.11,0,0,1-4.25,4.24A4,4,0,0,1,21.4,14.6a4.25,4.25,0,1,1,8.5,0Z"/><path class="cls-1" d="M34,0a2.35,2.35,0,0,1,2.5,2.48A2.45,2.45,0,0,1,34,5.16a2.89,2.89,0,0,1-2.67-2.65A2.85,2.85,0,0,1,34,0Z"/><path class="cls-1" d="M30.17,93.89a2.7,2.7,0,0,1,2.6,2.53A2.53,2.53,0,0,1,30.14,99a2.38,2.38,0,0,1-2.47-2.55A2.49,2.49,0,0,1,30.17,93.89Z"/><path class="cls-2" d="M6.49,115.5s.33-.66.79-1.86c1.89-5,5.9-19.41-3.79-33.14-12-17,11-53,9-49A5.54,5.54,0,0,0,12,33.36c-.56,4.41,2.62,11.91,9.53,23.14C45.49,90.5,6.49,115.5,6.49,115.5Z"/><path class="cls-3" d="M8.36,113.5a4.92,4.92,0,0,1-1.08.14c1.89-5,5.9-19.41-3.79-33.14-12-17,11-53,9-49A5.54,5.54,0,0,0,12,33.36c-4.09,5.83-9.18,20.31.53,44.14C23.49,104.5,8.36,113.5,8.36,113.5Z"/><path class="cls-3" d="M49.78,76.59,52,68.78a.16.16,0,0,1,.16-.12h.86a.16.16,0,0,1,.16.12l2.25,7.81a.15.15,0,0,1,0,.13.14.14,0,0,1-.13.07h-.77a.14.14,0,0,1-.15-.11L54,75.37a.15.15,0,0,0-.15-.11H51.39a.14.14,0,0,0-.15.11l-.38,1.31a.14.14,0,0,1-.15.11h-.78a.13.13,0,0,1-.12-.07A.11.11,0,0,1,49.78,76.59Zm2-2.39h1.66a.16.16,0,0,0,.13-.07.14.14,0,0,0,0-.14l-.82-2.88a.15.15,0,0,0-.07-.1l-.09,0a.14.14,0,0,0-.15.12L51.63,74a.17.17,0,0,0,0,.14A.17.17,0,0,0,51.79,74.2Z"/><path class="cls-3" d="M61,68.65a.14.14,0,0,1,.16.16v6.76a.14.14,0,0,0,.16.16h3.08a.14.14,0,0,1,.16.16v.74a.14.14,0,0,1-.16.16H60.23a.14.14,0,0,1-.16-.16V68.81a.14.14,0,0,1,.16-.16Z"/><path class="cls-3" d="M69.12,76.79a.14.14,0,0,1-.16-.16V68.81a.14.14,0,0,1,.16-.16h.75a.14.14,0,0,1,.16.16v7.82a.15.15,0,0,1-.16.16Z"/><path class="cls-3" d="M74.73,68.65h.85a.14.14,0,0,1,.15.1L78,74a.08.08,0,0,0,.07.05.05.05,0,0,0,0,0,.06.06,0,0,0,0-.06V68.81a.14.14,0,0,1,.16-.16h.74a.14.14,0,0,1,.16.16v7.82a.15.15,0,0,1-.16.16h-.88a.16.16,0,0,1-.15-.1l-2.31-5.25s0,0,0,0a.05.05,0,0,0-.06.06v5.17a.15.15,0,0,1-.16.16h-.75a.14.14,0,0,1-.16-.16V68.81A.14.14,0,0,1,74.73,68.65Z"/><path class="cls-3" d="M86.65,73.07a.14.14,0,0,1-.16-.15V72.2a.14.14,0,0,1,.16-.15H89c.11,0,.16,0,.16.15v2a3,3,0,0,1-.2,1.07,2.92,2.92,0,0,1-.56.89,2.75,2.75,0,0,1-.85.61,2.5,2.5,0,0,1-1.07.23,2.62,2.62,0,0,1-1-.22,2.83,2.83,0,0,1-1.62-2.58V71.28a2.8,2.8,0,0,1,1.62-2.58,2.62,2.62,0,0,1,1-.22,2.41,2.41,0,0,1,1.4.41,3.33,3.33,0,0,1,1,1.09.24.24,0,0,1,0,.12.11.11,0,0,1-.09.08l-.69.28-.06,0a.15.15,0,0,1-.14-.09l-.06-.11-.07-.11a1.72,1.72,0,0,0-.56-.49,1.44,1.44,0,0,0-.71-.18,1.53,1.53,0,0,0-1.13.52,1.82,1.82,0,0,0-.35.57,1.92,1.92,0,0,0-.12.69v2.88a2,2,0,0,0,.12.7,1.89,1.89,0,0,0,.35.56,1.53,1.53,0,0,0,1.13.52,1.45,1.45,0,0,0,.66-.15,1.73,1.73,0,0,0,.84-1,1.84,1.84,0,0,0,.12-.66v-.94c0-.1,0-.15-.16-.15Z"/><path class="cls-3" d="M101.45,68.65h.82a.13.13,0,0,1,.14.09l1.33,2.77a.08.08,0,0,0,.07,0,.05.05,0,0,0,.06,0l1.32-2.77a.15.15,0,0,1,.14-.09h.83a.16.16,0,0,1,.14.08.14.14,0,0,1,0,.15l-2,4.08s0,0,0,.07v3.6a.14.14,0,0,1-.16.16h-.75a.15.15,0,0,1-.16-.16V73l-2-4.08a.14.14,0,0,1,0-.15A.15.15,0,0,1,101.45,68.65Z"/><path class="cls-3" d="M113.22,68.52a2.42,2.42,0,0,1,1,.21,2.57,2.57,0,0,1,.82.55,2.61,2.61,0,0,1,.55.83,2.38,2.38,0,0,1,.2,1v3.27a2.42,2.42,0,0,1-.2,1,2.46,2.46,0,0,1-.55.82,2.63,2.63,0,0,1-1.82.76h-.35a2.46,2.46,0,0,1-1-.21,2.42,2.42,0,0,1-.82-.55,2.62,2.62,0,0,1-.55-.82,2.59,2.59,0,0,1-.2-1V71.11a2.55,2.55,0,0,1,.2-1,2.79,2.79,0,0,1,.55-.83,2.57,2.57,0,0,1,.82-.55,2.46,2.46,0,0,1,1-.21Zm1.51,2.59a1.68,1.68,0,0,0-.11-.6,1.6,1.6,0,0,0-.81-.81,1.45,1.45,0,0,0-.59-.12h-.35a1.52,1.52,0,0,0-.59.12,1.58,1.58,0,0,0-.48.33,1.55,1.55,0,0,0-.32.48,1.5,1.5,0,0,0-.12.6v3.27a1.48,1.48,0,0,0,.12.59,1.44,1.44,0,0,0,.32.48,1.58,1.58,0,0,0,.48.33,1.52,1.52,0,0,0,.59.12h.35a1.45,1.45,0,0,0,.59-.12,1.58,1.58,0,0,0,.48-.33,1.47,1.47,0,0,0,.33-.48,1.67,1.67,0,0,0,.11-.59Z"/><path class="cls-3" d="M120.28,74.16V68.83a.14.14,0,0,1,.16-.16h.75a.14.14,0,0,1,.16.16V74.2a1.12,1.12,0,0,0,0,.26,1.48,1.48,0,0,0,.05.35,3,3,0,0,0,.13.39,1.13,1.13,0,0,0,.23.34,1.11,1.11,0,0,0,.85.31,1,1,0,0,0,.56-.15,1.12,1.12,0,0,0,.36-.39,1.44,1.44,0,0,0,.18-.53,3.9,3.9,0,0,0,.05-.58V68.83a.14.14,0,0,1,.16-.16h.74a.14.14,0,0,1,.16.16v5.33a4.34,4.34,0,0,1-.12,1,2.83,2.83,0,0,1-.4.88,1.91,1.91,0,0,1-.68.61,2,2,0,0,1-1,.23,2.22,2.22,0,0,1-1-.22,1.93,1.93,0,0,1-.73-.59,2.65,2.65,0,0,1-.42-.88A3.72,3.72,0,0,1,120.28,74.16Z"/><path class="cls-3" d="M129.6,68.66h2.11a3,3,0,0,1,1,.17,2.19,2.19,0,0,1,.82.49,2.5,2.5,0,0,1,.53.78,2.83,2.83,0,0,1,.19,1,2.71,2.71,0,0,1-.31,1.34,2.06,2.06,0,0,1-1,.88.13.13,0,0,0-.08.21l1.3,3a.18.18,0,0,1,0,.16.17.17,0,0,1-.14.07h-.81a.16.16,0,0,1-.15-.1l-1.33-3a.13.13,0,0,0-.14-.1h-1a.14.14,0,0,0-.16.16v2.93a.14.14,0,0,1-.16.16h-.74a.14.14,0,0,1-.16-.16V68.82A.14.14,0,0,1,129.6,68.66Zm1.06,3.82h1.6a1,1,0,0,0,.46-.15A.76.76,0,0,0,133,72a1,1,0,0,0,.16-.4,2.28,2.28,0,0,0,0-.48,1.38,1.38,0,0,0-.39-1.06,1.54,1.54,0,0,0-1.09-.36h-1.09a.14.14,0,0,0-.16.16v2.44A.14.14,0,0,0,130.66,72.48Z"/><path class="cls-3" d="M146.21,68.82a.14.14,0,0,1,.16-.16h.74a.14.14,0,0,1,.16.16v3.26a.14.14,0,0,0,.16.16h2.21a.14.14,0,0,0,.16-.16V68.82a.14.14,0,0,1,.16-.16h.74a.14.14,0,0,1,.16.16v7.81a.14.14,0,0,1-.16.16H150a.15.15,0,0,1-.16-.16V73.46a.14.14,0,0,0-.16-.16h-2.21a.14.14,0,0,0-.16.16v3.17a.14.14,0,0,1-.16.16h-.74a.14.14,0,0,1-.16-.16Z"/><path class="cls-3" d="M155.55,68.66h4a.14.14,0,0,1,.16.16v.75a.14.14,0,0,1-.16.16h-3c-.1,0-.15,0-.15.16V72c0,.11,0,.16.15.16h2a.15.15,0,0,1,.16.16v.74a.14.14,0,0,1-.16.16h-2a.14.14,0,0,0-.15.16v2.16a.14.14,0,0,0,.15.16h3a.14.14,0,0,1,.16.16v.74a.14.14,0,0,1-.16.16h-4a.15.15,0,0,1-.16-.16V68.82A.14.14,0,0,1,155.55,68.66Z"/><path class="cls-3" d="M164.17,76.59l2.24-7.81a.17.17,0,0,1,.16-.12h.87a.16.16,0,0,1,.15.12l2.26,7.81a.15.15,0,0,1,0,.13.15.15,0,0,1-.13.07h-.78a.16.16,0,0,1-.15-.11l-.37-1.31a.16.16,0,0,0-.16-.11h-2.45a.16.16,0,0,0-.16.11l-.37,1.31a.15.15,0,0,1-.16.11h-.77a.16.16,0,0,1-.13-.07A.12.12,0,0,1,164.17,76.59Zm2-2.39h1.66a.17.17,0,0,0,.13-.07.14.14,0,0,0,0-.14l-.83-2.88a.14.14,0,0,0-.06-.1l-.1,0a.15.15,0,0,0-.15.12L166,74a.17.17,0,0,0,0,.14A.16.16,0,0,0,166.18,74.2Z"/><path class="cls-3" d="M175.36,68.65a.14.14,0,0,1,.16.16v6.76a.14.14,0,0,0,.16.16h3.08a.14.14,0,0,1,.16.16v.74a.14.14,0,0,1-.16.16h-4.14a.14.14,0,0,1-.16-.16V68.81a.14.14,0,0,1,.16-.16Z"/><path class="cls-3" d="M181.8,68.66h5a.14.14,0,0,1,.16.16v.74a.14.14,0,0,1-.16.16H185a.14.14,0,0,0-.16.16v6.75a.14.14,0,0,1-.16.16h-.74a.14.14,0,0,1-.16-.16V69.88a.14.14,0,0,0-.16-.16H181.8a.14.14,0,0,1-.16-.16v-.74A.14.14,0,0,1,181.8,68.66Z"/><path class="cls-3" d="M191.31,68.82c0-.11.05-.16.15-.16h.75a.14.14,0,0,1,.16.16v3.26a.14.14,0,0,0,.16.16h2.21a.15.15,0,0,0,.16-.16V68.82a.14.14,0,0,1,.16-.16h.74a.14.14,0,0,1,.16.16v7.81a.14.14,0,0,1-.16.16h-.74a.14.14,0,0,1-.16-.16V73.46a.14.14,0,0,0-.16-.16h-2.21a.14.14,0,0,0-.16.16v3.17a.15.15,0,0,1-.16.16h-.75a.14.14,0,0,1-.15-.16Z"/></g></g></svg>